<?xml version="1.0" standalone="no"?>
<!DOCTYPE svg PUBLIC "-//W3C//DTD SVG 20010904//EN"
 "http://www.w3.org/TR/2001/REC-SVG-20010904/DTD/svg10.dtd">
<svg version="1.0" xmlns="http://www.w3.org/2000/svg"
 width="32px" height="32px" viewBox="0 0 48.000000 48.000000"
 preserveAspectRatio="xMidYMid meet">
<metadata>
Created by potrace 1.15, written by Peter Selinger 2001-2017
</metadata>
<g transform="translate(0.000000,48.000000) scale(0.100000,-0.100000)"
fill="#343434" stroke="none">
<path d="M133 414 c-24 -14 -54 -44 -68 -68 -50 -86 -24 -219 53 -271 46 -32
62 -31 62 0 0 18 -5 25 -20 25 -10 0 -25 10 -31 23 -9 18 -9 20 2 10 18 -18
56 -16 63 3 9 24 7 34 -7 34 -27 0 -57 40 -57 75 0 19 5 37 10 40 6 3 10 20
10 37 0 25 3 29 18 22 22 -11 122 -11 145 0 13 6 17 4 17 -15 0 -12 5 -37 11
-54 17 -45 5 -81 -31 -97 -24 -10 -30 -18 -25 -33 3 -11 9 -37 12 -57 7 -44
13 -46 59 -17 83 51 112 185 59 275 -37 63 -95 94 -176 94 -51 0 -73 -5 -106
-26z"/>
</g>
</svg>
